<svg xmlns="http://www.w3.org/2000/svg" viewBox="0 0 343.91 344.19"><path d="M191.7,363.84c-21.12,0-42.31,1-63.36-.25-27.43-1.66-54.13-7-75.71-26.15-15.27-13.58-23.81-31.08-27.77-50.7-2.4-11.95-4.28-24.21-4.45-36.36-.53-39.62-.42-79.25-.05-118.87a147,147,0,0,1,9.22-50.63c10.55-28,30.68-45.74,59.18-53.73,10.76-3,22-4.51,33.09-6.08a146,146,0,0,1,20.5-1c36.64,0,73.27-.13,109.9.23A154,154,0,0,1,298,27.68c30.57,9.81,50.09,30.32,59.2,61a154.47,154.47,0,0,1,6.58,42.83q.42,60.56,0,121.12A150.78,150.78,0,0,1,356,299c-10.28,31-31.67,50.07-62.82,58.72-17.73,4.93-35.87,6.28-54.18,6.24q-23.62,0-47.26,0Zm-51.4-24.15c1.53.09,2.88.23,4.22.23h96.4c14.91,0,29.72-1,44.22-4.74,19.68-5.12,35.36-15.44,44.39-34.33,7.43-15.54,10-32.21,10.21-49.15.39-38.24.23-76.49.19-114.74a152,152,0,0,0-4.66-38.22c-5.14-19.66-15.51-35.32-34.42-44.31-15.56-7.4-32.23-9.95-49.17-10.15C215.8,43.88,179.92,44.06,144,44c-1.21,0-2.42.16-3.74.26Z" transform="translate(-20.05 -20.03)"/><path d="M215.28,191.9c3.77,3.49,6.86,6.19,9.77,9.07,7.73,7.64,15.45,15.3,23.06,23.06,5.32,5.43,5.4,12.85.39,17.67s-12.05,4.56-17.4-.77q-20.07-19.94-40-40c-5.46-5.5-5.45-12.43,0-17.94q19.8-19.93,39.75-39.74c5.2-5.18,12.6-5.36,17.42-.63s4.92,12.1-.3,17.41c-9.45,9.62-19,19.1-28.62,28.61C218.39,189.6,217.22,190.36,215.28,191.9Z" transform="translate(-20.05 -20.03)"/></svg>